<svg width="40" height="40" viewBox="0 0 40 40" fill="none" xmlns="http://www.w3.org/2000/svg">
  <!-- Document background -->
  <rect x="4" y="4" width="32" height="32" rx="4" fill="#10B981" />

  <!-- Document fold corner -->
  <path d="M28 4L36 12H28V4Z" fill="#059669" />

  <!-- Markdown symbols -->
  <!-- Hash for headers -->
  <rect x="10" y="12" width="2" height="2" fill="white" />
  <rect x="14" y="12" width="2" height="2" fill="white" />
  <rect x="10" y="16" width="2" height="2" fill="white" />
  <rect x="14" y="16" width="2" height="2" fill="white" />

  <!-- Asterisk for emphasis -->
  <circle cx="26" cy="14" r="1" fill="white" />
  <rect x="25.5" y="13" width="1" height="2" fill="white" />
  <rect x="26.5" y="13" width="1" height="2" fill="white" transform="rotate(45 26.5 13)" />
  <rect x="26.5" y="13" width="1" height="2" fill="white" transform="rotate(-45 26.5 13)" />

  <!-- Plus for lists -->
  <rect x="10" y="22" width="6" height="2" fill="white" />
  <rect x="12" y="20" width="2" height="6" fill="white" />

  <!-- Minus for horizontal rules -->
  <rect x="22" y="22" width="6" height="2" fill="white" />
</svg>